<svg xmlns="http://www.w3.org/2000/svg" width="242.0" height="192" viewBox="0 0 242.0 192" role="img" aria-label="Klyrix/gate dikey logo, dark">
  <title>Klyrix/gate dikey logo, dark</title>
  <defs>
    <linearGradient id="bg" x1="0" y1="0" x2="1" y2="1">
      <stop offset="0%" stop-color="#94A3B8" stop-opacity="0.95"/>
      <stop offset="100%" stop-color="#1E293B" stop-opacity="0.85"/>
    </linearGradient>
    <linearGradient id="shine" x1="0" y1="0" x2="0" y2="1">
      <stop offset="0%" stop-color="#FFFFFF" stop-opacity="0.32"/>
      <stop offset="100%" stop-color="#FFFFFF" stop-opacity="0"/>
    </linearGradient>
  </defs>
  <g transform="translate(57.02009936124912,0)">
    <rect x="0" y="0" width="128" height="128" rx="28.0" fill="url(#bg)"/>
    <rect x="0" y="0" width="128" height="64.0" rx="28.0" fill="url(#shine)"/>
    <rect x="0.5" y="0.5" width="127.0" height="127.0" rx="27.5" fill="none" stroke="#FFFFFF" stroke-opacity="0.18" stroke-width="1.0"/>
  <g transform="translate(64.0,64.0) scale(1.0)">
    <rect x="-27" y="-36" width="11" height="72" rx="2.5" fill="#FFFFFF"/>
    <path d="M -8 0 L 19 -27" fill="none" stroke="#FFFFFF" stroke-width="8" stroke-linecap="round"/>
    <path d="M -8 0 L 19 27" fill="none" stroke="#FFFFFF" stroke-width="8" stroke-linecap="round"/>
    <rect x="16" y="-37" width="14" height="14" rx="3" fill="#FFFFFF"/>
    <rect x="16" y="23" width="14" height="14" rx="3" fill="#FFFFFF"/>
  </g>
  </g>
  <path fill="#F8FAFC" fill-rule="nonzero" d="M40.519517388218595 170.0 31.182398864442867 158.06103619588362 27.971611071682045 160.5152590489709V170.0H22.528034066713982V144.0H27.971611071682045V155.79134137686302L39.68914123491838 144.0H46.03690560681334L34.92831795599716 154.99787083037614L46.94109297374024 170.0Z M49.93044712562101 170.0V142.61603974449963H55.11568488289567V170.0Z M63.01348474095103 177.84244144783534Q61.149751596877216 177.84244144783534 59.747338537970194 177.60255500354862V173.91199432221433Q60.725337118523775 174.0596167494677 61.537260468417315 174.0596167494677Q62.644428672817604 174.0596167494677 63.373314407381116 173.70901348474095Q64.10220014194464 173.3584102200142 64.68346344925479 172.54648687012065Q65.26472675656494 171.7345635202271 65.98438608942513 169.79701916252662L58.086586231369765 150.03406671398156H63.56706884315117L66.7040454222853 159.38963804116395Q67.44215755855217 161.40099361249113 68.56777856635912 165.5528743789922L69.0290986515259 163.7998580553584L70.22853087295954 159.46344925479065L73.18097941802696 150.03406671398156H78.60610361958837L70.708303761533 171.05180979418026Q69.12136266855926 174.88999290276791 67.41447835344215 176.36621717530164Q65.70759403832506 177.84244144783534 63.01348474095103 177.84244144783534Z M81.44783534421575 170.0V154.72107877927607Q81.44783534421575 153.07877927608234 81.40170333569907 151.9808374733854Q81.3555713271824 150.88289567068844 81.30021291696238 150.03406671398156H86.24556422995032Q86.30092264017033 150.36621717530164 86.39318665720369 152.05464868701208Q86.48545067423704 153.7430801987225 86.48545067423704 154.29666430092263H86.55926188786373Q87.31582682753725 152.1930447125621 87.90631653655075 151.3349893541519Q88.49680624556423 150.47693399574166 89.30872959545778 150.06174591909155Q90.12065294535131 149.64655784244144 91.33853797019162 149.64655784244144Q92.33498935415187 149.64655784244144 92.94393186657203 149.9233498935415V154.2597586941093Q91.68914123491838 153.98296664300923 90.72959545777147 153.98296664300923Q88.79205110007096 153.98296664300923 87.71256210078069 155.5514549325763Q86.63307310149041 157.11994322214338 86.63307310149041 160.20156139105748V170.0Z M96.15471965933286 146.43577004968063V142.61603974449963H101.33995741660752V146.43577004968063ZM96.15471965933286 170.0V150.03406671398156H101.33995741660752V170.0Z M119.12845990063875 170.0 114.47835344215756 162.76650106458482 109.79134137686302 170.0H104.27395315826827L111.58126330731014 159.68488289567068L104.62455642299503 150.03406671398156H110.21575585521646L114.47835344215756 156.56635911994323L118.72249822569198 150.03406671398156H124.35060326472674L117.39389638041163 159.62952448545067L124.75656493967352 170.0Z M125.40241305890703 170.75656493967352 130.7721788502484 142.61603974449963H135.1639460610362L129.88644428672816 170.75656493967352Z"/>
  <path fill="#64748B" fill-rule="nonzero" d="M145.486160397445 177.84244144783534Q141.8140525195174 177.84244144783534 139.83960255500355 176.56919801277502Q137.8651525904897 175.2959545777147 137.40383250532292 172.62029808374734L142.62597586941095 172.0667139815472Q143.12420156139106 174.41022001419446 146.09510290986515 174.41022001419446Q148.12491128459902 174.41022001419446 149.25053229240598 173.32150461320086Q150.37615330021293 172.23278921220725 151.00354861603975 169.50177430801986Q151.37260468417318 167.73030518097943 151.57558552164656 166.29098651525905H151.5386799148332Q150.37615330021293 167.9332860184528 149.49964513839603 168.652945351313Q148.62313697657913 169.37260468417318 147.5251951738822 169.76011355571327Q146.42725337118526 170.14762242725337 145.00638750887154 170.14762242725337Q142.14620298083747 170.14762242725337 140.43931866572038 168.30234208658624Q138.73243435060328 166.45706174591908 138.73243435060328 163.43080198722498Q138.73243435060328 159.72178850248403 139.90418736692692 156.31724627395317Q141.07594038325055 152.9127040454223 143.1334279630944 151.29808374733852Q145.19091554293826 149.6834634492548 148.34634492547906 149.6834634492548Q150.5237757274663 149.6834634492548 152.09226401703336 150.71682044002839Q153.66075230660044 151.75017743080198 154.15897799858055 153.52164655784244H154.1958836053939Q154.30660042583392 152.98651525904899 154.64797728885736 151.58410220014196Q154.98935415188078 150.18168914123493 155.08161816891413 150.03406671398156H159.97161107168205L159.6210078069553 151.56564939673527L159.06742370475516 154.2597586941093L156.02271114265437 169.81547196593328Q155.15542938254083 174.11497515968773 152.66430092264017 175.97870830376155Q150.17317246273953 177.84244144783534 145.486160397445 177.84244144783534ZM153.14407381121364 157.3413768630234Q153.14407381121364 155.42228530872958 152.18452803406672 154.32434350603265Q151.22498225691982 153.2264017033357 149.4904187366927 153.2264017033357Q148.08800567778567 153.2264017033357 147.17459190915542 153.8168914123492Q146.2611781405252 154.40738112136268 145.62455642299506 155.72675656493968Q144.98793470546488 157.04613200851668 144.57274662881477 159.1958836053939Q144.15755855216466 161.34563520227113 144.15755855216466 162.69268985095812Q144.15755855216466 166.36479772888575 147.3498935415188 166.36479772888575Q148.99219304471256 166.36479772888575 150.33924769339959 165.12845990063875Q151.6863023420866 163.89212207239177 152.4151880766501 161.76082327892124Q153.14407381121364 159.62952448545067 153.14407381121364 157.3413768630234Z M177.07735982966645 170.18452803406672Q175.2320794889993 170.18452803406672 174.23562810503904 169.40951029098653Q173.2391767210788 168.63449254790632 173.2391767210788 167.361249112846Q173.2391767210788 166.67849538679914 173.33144073811215 166.18026969481903H173.22072391767213Q171.67068843151173 168.5791341376863 170.1575585521647 169.47409510290987Q168.6444286728176 170.36905606813343 166.4669978708304 170.36905606813343Q163.8836053938964 170.36905606813343 162.34279630943934 168.82824698367637Q160.80198722498227 167.2874378992193 160.80198722498227 164.87012065294536Q160.80198722498227 161.45635202271114 163.15471965933287 159.7125621007807Q165.50745209368347 157.96877217885026 170.7849538679915 157.8765081618169L174.30943931866574 157.82114975159686Q174.69694819020583 156.0681334279631 174.69694819020583 155.40383250532292Q174.69694819020583 153.041873669269 172.35344215755856 153.041873669269Q170.61887863733145 153.041873669269 169.77004968062457 153.7154009936125Q168.92122072391768 154.388928317956 168.60752306600426 155.6621717530163L163.7544357700497 155.0901348474095Q164.3818310858765 152.43293115684884 166.58694109297375 151.04897090134847Q168.79205110007098 149.66501064584813 172.44570617459192 149.66501064584813Q176.2654364797729 149.66501064584813 178.04613200851668 151.01206529453515Q179.82682753726047 152.35911994322214 179.82682753726047 155.1085876508162Q179.82682753726047 155.79134137686302 179.38396025550037 158.00567778566358L178.0738112136267 164.5195173882186Q177.92618878637333 165.3498935415188 177.92618878637333 165.84811923349895Q177.92618878637333 166.29098651525905 178.11071682044005 166.53087295954577Q178.29524485450676 166.7707594038325 178.5351312987935 166.88147622427255Q178.7750177430802 166.99219304471256 179.01490418736694 167.01987224982258Q179.25479063165366 167.04755145493257 179.38396025550037 167.04755145493257Q179.93754435770052 167.04755145493257 180.52803406671399 166.91838183108587L180.2696948190206 169.77856635911994Q179.4946770759404 170.0738112136267 178.70120652945351 170.1291696238467Q177.90773598296664 170.18452803406672 177.07735982966645 170.18452803406672ZM173.73740241305893 160.71823988644428H170.74804826117816Q168.5890702625976 160.75514549325763 167.34350603264727 161.6039744499645Q166.09794180269697 162.4528034066714 166.09794180269697 164.0028388928318Q166.09794180269697 165.2945351312988 166.8268275372605 166.0234208658623Q167.555713271824 166.75230660042584 168.79205110007098 166.75230660042584Q170.32363378282471 166.75230660042584 171.57842441447838 165.56210078069552Q172.833215046132 164.37189496096522 173.33144073811215 162.41589779985804Z M188.57345635202273 170.29524485450673Q186.28530872959547 170.29524485450673 185.0305180979418 169.21575585521646Q183.77572746628817 168.13626685592618 183.77572746628817 166.14336408800568Q183.77572746628817 164.833215046132 184.0709723207949 163.24627395315827L185.9531582682754 153.5400993612491H183.22214336408803L183.90489709013485 150.03406671398156H186.89425124201563L189.4222853087296 145.34705464868702H192.66997870830377L191.78424414478354 150.03406671398156H195.51171043293118L194.86586231369768 153.5400993612491H191.08303761533003L189.1639460610362 163.41234918381832Q188.96096522356282 164.44570617459192 188.96096522356282 165.05464868701208Q188.96096522356282 165.90347764371896 189.3946061036196 166.31866572036904Q189.8282469836764 166.73385379701915 190.56635911994323 166.73385379701915Q191.15684882895673 166.73385379701915 192.55926188786376 166.49396735273243L191.96877217885026 169.85237757274663Q190.47409510290987 170.29524485450673 188.57345635202273 170.29524485450673Z M200.82611781405254 161.21646557842442Q200.69694819020583 161.91767210787793 200.69694819020583 162.85876508161817Q200.69694819020583 164.81476224272535 201.55500354861607 165.85734563520228Q202.41305890702628 166.8999290276792 204.09226401703336 166.8999290276792Q206.80482611781406 166.8999290276792 208.02271114265437 163.78140525195175L212.54364797728886 165.14691270404543Q211.15968772178852 168.08090844570617 209.111426543648 169.22498225691982Q207.06316536550747 170.36905606813343 203.74166075230661 170.36905606813343Q199.8112136266856 170.36905606813343 197.59687721788504 168.2377572746629Q195.38254080908447 166.10645848119233 195.38254080908447 162.28672817601137Q195.38254080908447 158.46699787083037 196.7111426543648 155.59758694109297Q198.03974449964514 152.72817601135557 200.4847409510291 151.19659332860186Q202.92973740241308 149.66501064584813 206.1405251951739 149.66501064584813Q209.9971611071682 149.66501064584813 212.09155429382542 151.6486870120653Q214.1859474804826 153.63236337828246 214.1859474804826 157.24911284599006Q214.1859474804826 159.07594038325053 213.7430801987225 161.21646557842442ZM209.38821859474805 157.76579134137685 209.44357700496806 156.73243435060326Q209.44357700496806 154.75798438608942 208.53016323633784 153.85379701916253Q207.6167494677076 152.94960965223564 206.1405251951739 152.94960965223564Q204.36905606813343 152.94960965223564 203.16039744499648 154.17672107877928Q201.9517388218595 155.40383250532292 201.4350603264727 157.76579134137685Z"/>
</svg>
