<svg xmlns="http://www.w3.org/2000/svg" width="363.0" height="64" viewBox="0 0 363.0 64" role="img" aria-label="Klyrix/gate yatay lockup, dark">
  <title>Klyrix/gate yatay lockup, dark</title>
  <defs>
    <linearGradient id="bg" x1="0" y1="0" x2="1" y2="1">
      <stop offset="0%" stop-color="#94A3B8" stop-opacity="0.95"/>
      <stop offset="100%" stop-color="#1E293B" stop-opacity="0.85"/>
    </linearGradient>
    <linearGradient id="shine" x1="0" y1="0" x2="0" y2="1">
      <stop offset="0%" stop-color="#FFFFFF" stop-opacity="0.32"/>
      <stop offset="100%" stop-color="#FFFFFF" stop-opacity="0"/>
    </linearGradient>
  </defs>
  <g transform="translate(0,0)">
    <rect x="0" y="0" width="64" height="64" rx="14.0" fill="url(#bg)"/>
    <rect x="0" y="0" width="64" height="32.0" rx="14.0" fill="url(#shine)"/>
    <rect x="0.5" y="0.5" width="63.0" height="63.0" rx="13.5" fill="none" stroke="#FFFFFF" stroke-opacity="0.18" stroke-width="1.0"/>
  <g transform="translate(32.0,32.0) scale(0.5)">
    <rect x="-27" y="-36" width="11" height="72" rx="2.5" fill="#FFFFFF"/>
    <path d="M -8 0 L 19 -27" fill="none" stroke="#FFFFFF" stroke-width="8" stroke-linecap="round"/>
    <path d="M -8 0 L 19 27" fill="none" stroke="#FFFFFF" stroke-width="8" stroke-linecap="round"/>
    <rect x="16" y="-37" width="14" height="14" rx="3" fill="#FFFFFF"/>
    <rect x="16" y="23" width="14" height="14" rx="3" fill="#FFFFFF"/>
  </g>
  </g>
  <path fill="#F8FAFC" fill-rule="nonzero" d="M112.41163946061036 50.0 99.4833215046132 33.469127040454225 95.0376153300213 36.867281760113556V50.0H87.50035486160398V14.0H95.0376153300213V30.326472675656493L111.26188786373315 14.0H120.05110007097232L104.66997870830376 29.227821149751595L121.30305180979418 50.0Z M125.44215755855217 50.0V12.083747338537968H132.62171753016324V50.0Z M143.55713271823987 60.858765081618174Q140.97657913413767 60.858765081618174 139.03477643718946 60.52661462029808V55.416607523066006Q140.388928317956 55.62100780695529 141.51312987934705 55.62100780695529Q143.04613200851665 55.62100780695529 144.05535841021998 55.13555713271824Q145.06458481192334 54.65010645848119 145.8694109297374 53.52590489709013Q146.67423704755143 52.401703335699075 147.67068843151168 49.718949609652235L136.73527324343505 22.35486160397445H144.3236337828247L148.66713981547196 35.30872959545777Q149.68914123491837 38.09368346344925 151.24769339957416 43.84244144783534L151.88644428672816 41.415188076650104L153.54719659332858 35.41092973740241L157.63520227111425 22.35486160397445H165.1469127040454L154.21149751596874 51.456352022711144Q152.01419446415895 56.77075940383251 149.65081618168912 58.81476224272534Q147.2874378992193 60.858765081618174 143.55713271823987 60.858765081618174Z M169.08161816891413 50.0V28.84457061745919Q169.08161816891413 26.570617459190913 169.01774308019873 25.05039034776437Q168.95386799148332 23.530163236337827 168.87721788502483 22.35486160397445H175.72462739531582Q175.8012775017743 22.814762242725337 175.9290276792051 25.152590489709013Q176.0567778566359 27.49041873669269 176.0567778566359 28.2569198012775H176.15897799858055Q177.20652945351313 25.344215755855217 178.02413058907027 24.156139105748757Q178.8417317246274 22.968062455642297 179.96593328601847 22.39318665720369Q181.0901348474095 21.81831085876508 182.7764371894961 21.81831085876508Q184.15613910574876 21.81831085876508 184.99929027679207 22.201561391057485V28.20581973030518Q183.26188786373314 27.822569198012772 181.9332860184528 27.822569198012772Q179.25053229240598 27.822569198012772 177.7558552164656 29.994322214336407Q176.2611781405252 32.16607523066004 176.2611781405252 36.43293115684883V50.0Z M189.444996451384 17.37260468417317V12.083747338537968H196.62455642299506V17.37260468417317ZM189.444996451384 50.0V22.35486160397445H196.62455642299506V50.0Z M221.25479063165366 50.0 214.81618168914125 39.98438608942512 208.3264726756565 50.0H200.68701206529454L210.80482611781406 35.71753016323633L201.1724627395316 22.35486160397445H208.91412349183818L214.81618168914125 31.39957416607523L220.69268985095812 22.35486160397445H228.48545067423706L218.8530872959546 35.64088005677786L229.04755145493257 50.0Z M229.9418026969482 51.047551454932574 237.37686302342087 12.083747338537968H243.45777146912704L236.15046132008516 51.047551454932574Z"/>
  <path fill="#64748B" fill-rule="nonzero" d="M256.9808374733854 60.858765081618174Q251.89638041163948 60.858765081618174 249.16252661462033 59.09581263307311Q246.42867281760115 57.33286018452804 245.78992193044712 53.62810503903478L253.02058197303052 52.86160397444996Q253.71043293115684 56.106458481192334 257.8239886444287 56.106458481192334Q260.63449254790635 56.106458481192334 262.19304471256214 54.59900638750887Q263.7515968772179 53.09155429382541 264.62029808374734 49.31014904187367Q265.13129879347053 46.85734563520227 265.4123491838183 44.86444286728176H265.361249112846Q263.7515968772179 47.13839602555004 262.5379701916253 48.13484740951029Q261.3243435060327 49.13129879347055 259.8041163946061 49.66784953867992Q258.2838892831796 50.204400283889285 256.31653655074524 50.204400283889285Q252.35628105039035 50.204400283889285 249.9929027679205 47.64939673527324Q247.62952448545067 45.0943931866572 247.62952448545067 40.9041873669269Q247.62952448545067 35.76863023420866 249.25195173882184 31.05464868701206Q250.87437899219304 26.34066713981547 253.72320794889993 24.105039034776436Q256.5720369056068 21.869410929737402 260.94109297374024 21.869410929737402Q263.9559971611072 21.869410929737402 266.1277501774308 23.300212916962384Q268.29950319375445 24.731014904187365 268.9893541518808 27.183818310858765H269.0404542228531Q269.1937544357701 26.442867281760112 269.666430092264 24.50106458481192Q270.13910574875797 22.55926188786373 270.2668559261888 22.35486160397445H277.0376153300213L276.5521646557843 24.475514549325762L275.78566359119947 28.20581973030518L271.56990773598295 49.7444996451384Q270.36905606813343 55.69765791341377 266.9198012775018 58.27821149751597Q263.47054648687015 60.858765081618174 256.9808374733854 60.858765081618174ZM267.58410220014196 32.47267565649396Q267.58410220014196 29.815471965933284 266.2555003548616 28.29524485450674Q264.9268985095813 26.7750177430802 262.5251951738822 26.7750177430802Q260.583392476934 26.7750177430802 259.31866572036904 27.59261887863733Q258.0539389638041 28.41022001419446 257.1724627395316 30.23704755145493Q256.2909865152591 32.0638750887154 255.71611071682048 35.040454222853086Q255.14123491838185 38.01703335699077 255.14123491838185 39.88218594748048Q255.14123491838185 44.9666430092264 259.5613910574876 44.9666430092264Q261.83534421575587 44.9666430092264 263.7004968062456 43.254790631653655Q265.5656493967353 41.54293825408091 266.5748757984386 38.591909155429384Q267.58410220014196 35.64088005677786 267.58410220014196 32.47267565649396Z M300.722498225692 50.2555003548616Q298.167494677076 50.2555003548616 296.7877927608233 49.18239886444287Q295.40809084457067 48.10929737402413 295.40809084457067 46.346344925479066Q295.40809084457067 45.40099361249113 295.5358410220015 44.7111426543648H295.3825408090845Q293.23633782824703 48.03264726756565 291.1412349183819 49.27182398864443Q289.04613200851674 50.511000709723206 286.0312278211498 50.511000709723206Q282.45422285308734 50.511000709723206 280.32079488999295 48.377572746628815Q278.18736692689856 46.24414478353442 278.18736692689856 42.89709013484741Q278.18736692689856 38.17033356990773 281.444996451384 35.75585521646558Q284.70262597586947 33.34137686302342 292.0099361249113 33.213626685592615L296.889992902768 33.136976579134135Q297.4265436479773 30.709723207948898 297.4265436479773 29.789921930447125Q297.4265436479773 26.519517388218592 294.1816891412349 26.519517388218592Q291.7799858055359 26.519517388218592 290.6046841731725 27.452093683463445Q289.4293825408091 28.384669978708303 288.9950319375444 30.14762242725337L282.2753726046842 29.355571327182396Q283.1440738112137 25.6763662171753 286.19730305180985 23.760113555713268Q289.250532292406 21.84386089425124 294.30943931866574 21.84386089425124Q299.59829666430096 21.84386089425124 302.06387508871546 23.70901348474095Q304.5294535131299 25.574166075230657 304.5294535131299 29.38112136266856Q304.5294535131299 30.326472675656493 303.91625266146207 33.39247693399574L302.10220014194465 42.41163946061036Q301.8977998580554 43.56139105748758 301.8977998580554 44.25124201561391Q301.8977998580554 44.86444286728176 302.153300212917 45.19659332860185Q302.4088005677786 45.52874378992193 302.7409510290987 45.68204400283889Q303.07310149041876 45.83534421575585 303.4052519517388 45.8736692689851Q303.73740241305893 45.91199432221433 303.91625266146207 45.91199432221433Q304.6827537260469 45.91199432221433 305.500354861604 45.73314407381121L305.14265436479775 49.69339957416607Q304.06955287437904 50.10220014194464 302.9709013484742 50.17885024840312Q301.87224982256924 50.2555003548616 300.722498225692 50.2555003548616ZM296.097941802697 37.14833215046132H291.958836053939Q288.96948190205825 37.19943222143364 287.2448545067424 38.37473385379702Q285.52022711142655 39.5500354861604 285.52022711142655 41.69623846699787Q285.52022711142655 43.484740951029096 286.5294535131299 44.49396735273243Q287.53867991483327 45.50319375443577 289.250532292406 45.50319375443577Q291.3711852377573 45.50319375443577 293.10858765081616 43.85521646557842Q294.8459900638751 42.207239176721075 295.5358410220015 39.49893541518807Z M316.6401703335699 50.40880056777856Q313.471965933286 50.40880056777856 311.7345635202271 48.91412349183818Q309.9971611071682 47.4194464158978 309.9971611071682 44.660042583392475Q309.9971611071682 42.845990063875085 310.40596167494675 40.648687012065295L313.01206529453515 27.209368346344924H309.2306600425834L310.17601135557135 22.35486160397445H314.3151171043293L317.8154719659333 15.865152590489707H322.3122782114975L321.08587650816185 22.35486160397445H326.2469836763662L325.3527324343506 27.209368346344924H320.11497515968773L317.45777146912707 40.878637331440736Q317.1767210787793 42.30943931866572 317.1767210787793 43.15259048970901Q317.1767210787793 44.32789212207239 317.77714691270404 44.902767920510996Q318.3775727466288 45.47764371894961 319.39957416607524 45.47764371894961Q320.2171753016324 45.47764371894961 322.15897799858055 45.145493257629525L321.3413768630234 49.795599716110715Q319.2718239886444 50.40880056777856 316.6401703335699 50.40880056777856Z M333.6053938963804 37.83818310858765Q333.4265436479773 38.80908445706174 333.4265436479773 40.11213626685593Q333.4265436479773 42.82044002838893 334.61462029808376 44.26401703335699Q335.8026969481902 45.707594038325055 338.1277501774308 45.707594038325055Q341.8836053938964 45.707594038325055 343.56990773598295 41.38963804116395L349.8296664300923 43.28034066713982Q347.9134137686302 47.34279630943932 345.0773598296664 48.926898509581264Q342.2413058907026 50.511000709723206 337.6422995031938 50.511000709723206Q332.2001419446416 50.511000709723206 329.1341376863023 47.55997161107168Q326.0681334279631 44.60894251242016 326.0681334279631 39.32008516678495Q326.0681334279631 34.03122782114975 327.90773598296664 30.058197303051806Q329.7473385379702 26.085166784953866 333.13271823988646 23.964513839602553Q336.5180979418027 21.84386089425124 340.9638041163946 21.84386089425124Q346.30376153300216 21.84386089425124 349.20369056068137 24.590489709013482Q352.1036195883606 27.337118523775725 352.1036195883606 32.344925479063164Q352.1036195883606 34.874378992193044 351.49041873669273 37.83818310858765ZM345.46061036195886 33.060326472675655 345.53726046841734 31.629524485450673Q345.53726046841734 28.89567068843151 344.27253371185236 27.64371894960965Q343.00780695528744 26.39176721078779 340.9638041163946 26.39176721078779Q338.51100070972325 26.39176721078779 336.8374733853797 28.090844570617456Q335.1639460610362 29.789921930447125 334.4485450674237 33.060326472675655Z"/>
</svg>
